# xmcd
#
# Track frame offsets:
#	150
#	26567
#	45032
#	68860
#	92827
#	115482
#	135677
#	154277
#	176240
#	209327
#	228020
#
# Disc length: 3395 seconds
#
# Revision: 1
# Processed by: cddbd v1.5.2PL0 Copyright (c) Steve Scherf et al.
# Submitted via: Jack! The Knife
#
DISCID=910d410b
DTITLE=Amorphis - Elegy
DYEAR=1996
DGENRE=Metal
TTITLE0=Better unborn
TTITLE1=Against widows
TTITLE2=The orphan
TTITLE3=On rich and poor
TTITLE4=My kantele
TTITLE5=Cares
TTITLE6=Song of the troubled one
TTITLE7=Weeper on the shore
TTITLE8=Elegy
TTITLE9=Relief
TTITLE10=My kantele (acoustic reprise)
EXTD=YEAR: 1996
EXTT0=
EXTT1=
EXTT2=
EXTT3=
EXTT4=
EXTT5=
EXTT6=
EXTT7=
EXTT8=
EXTT9=
EXTT10=
PLAYORDER=
